<svg width="40" height="32" viewBox="0 0 40 32" fill="none" xmlns="http://www.w3.org/2000/svg">
<path d="M38.8281 17.3281L25.7031 30.4531C24.5312 31.625 22.5 30.8046 22.5 29.125V21.625H11.875C10.8359 21.625 10 20.789 10 19.75V12.25C10 11.2109 10.8359 10.375 11.875 10.375H22.5V2.87495C22.5 1.20308 24.5234 0.374953 25.7031 1.54683L38.8281 14.6718C39.5547 15.4062 39.5547 16.5937 38.8281 17.3281ZM15 30.0625V26.9375C15 26.4218 14.5781 26 14.0625 26H7.5C6.11719 26 5 24.8828 5 23.5V8.49995C5 7.11714 6.11719 5.99995 7.5 5.99995H14.0625C14.5781 5.99995 15 5.57808 15 5.06245V1.93745C15 1.42183 14.5781 0.999953 14.0625 0.999953H7.5C3.35938 0.999953 0 4.35933 0 8.49995V23.5C0 27.6406 3.35938 31 7.5 31H14.0625C14.5781 31 15 30.5781 15 30.0625Z" fill="white"/>
</svg>
